<?xml version="1.0" standalone="no"?>
<!DOCTYPE svg PUBLIC "-//W3C//DTD SVG 20010904//EN"
 "http://www.w3.org/TR/2001/REC-SVG-20010904/DTD/svg10.dtd">
<svg version="1.0" xmlns="http://www.w3.org/2000/svg"
 width="240.000000pt" height="240.000000pt" viewBox="0 0 240.000000 240.000000"
 preserveAspectRatio="xMidYMid meet">

<g transform="translate(0.000000,240.000000) scale(0.100000,-0.100000)"
fill="#003ea8" stroke="none">
<path d="M1702 2378 c-8 -8 -12 -49 -12 -120 l0 -108 -50 0 -50 0 0 69 c0 49
-4 72 -15 81 -29 24 -45 -5 -45 -81 l0 -69 -69 0 c-76 0 -105 -16 -81 -45 10
-13 50 -15 241 -15 l229 0 0 -50 0 -50 -289 0 c-244 0 -290 -2 -301 -15 -10
-12 -10 -18 0 -30 11 -13 61 -15 341 -15 l329 0 0 -50 0 -50 -269 0 c-226 0
-270 -2 -281 -15 -10 -12 -10 -18 0 -30 11 -13 55 -15 281 -15 l269 0 0 -50 0
-50 -269 0 c-226 0 -270 -2 -281 -15 -10 -12 -10 -18 0 -30 11 -13 55 -15 281
-15 l269 0 0 -50 0 -50 -269 0 c-226 0 -270 -2 -281 -15 -10 -12 -10 -18 0
-30 11 -13 55 -15 281 -15 l269 0 0 -50 0 -50 -269 0 c-226 0 -270 -2 -281
-15 -10 -12 -10 -18 0 -30 11 -13 55 -15 281 -15 l269 0 0 -50 0 -50 -189 0
c-155 0 -191 -3 -201 -15 -10 -12 -10 -18 0 -30 10 -12 46 -15 201 -15 l189 0
0 -50 0 -50 -189 0 c-155 0 -191 -3 -201 -15 -10 -12 -10 -18 0 -30 10 -12 46
-15 201 -15 l189 0 0 -50 0 -50 -189 0 c-155 0 -191 -3 -201 -15 -10 -12 -10
-18 0 -30 10 -12 46 -15 201 -15 l189 0 0 -50 0 -50 -189 0 c-155 0 -191 -3
-201 -15 -10 -12 -10 -18 0 -30 10 -12 46 -15 201 -15 l189 0 0 -50 0 -50
-189 0 c-155 0 -191 -3 -201 -15 -10 -12 -10 -18 0 -30 10 -12 46 -15 201 -15
l189 0 0 -50 0 -50 -189 0 c-155 0 -191 -3 -201 -15 -10 -12 -10 -18 0 -30 10
-12 46 -15 201 -15 l189 0 0 -50 0 -50 -189 0 c-155 0 -191 -3 -201 -15 -10
-12 -10 -18 0 -30 10 -12 46 -15 201 -15 l189 0 0 -50 0 -50 -250 0 -250 0 0
469 c0 404 -2 470 -15 481 -12 10 -18 10 -30 0 -13 -11 -15 -77 -15 -481 l0
-469 -130 0 -130 0 0 530 0 530 149 0 c120 0 151 3 161 15 24 29 -5 45 -81 45
l-69 0 0 228 c0 245 -1 252 -52 252 l-28 0 0 109 c0 84 -3 111 -15 121 -12 10
-79 4 -336 -29 -176 -22 -327 -45 -335 -52 -10 -8 -14 -33 -14 -80 0 -69 0
-69 -28 -69 -15 0 -33 -5 -40 -12 -9 -9 -12 -94 -12 -320 l0 -308 -109 0 c-84
0 -111 -3 -121 -15 -10 -12 -10 -18 0 -30 10 -12 37 -15 121 -15 l109 0 0
-450 0 -450 -90 0 -90 0 0 389 c0 333 -2 390 -15 401 -12 10 -18 10 -30 0 -13
-11 -15 -68 -15 -401 l0 -389 -69 0 c-76 0 -105 -16 -81 -45 11 -13 154 -15
1180 -15 1026 0 1169 2 1180 15 24 29 -5 45 -81 45 l-69 0 -2 413 -3 412 -117
79 -118 80 0 456 c0 341 -3 459 -12 468 -7 7 -25 12 -40 12 -28 0 -28 0 -28
68 0 40 -5 73 -12 80 -7 7 -40 12 -80 12 l-68 0 0 108 c0 100 -7 132 -30 132
-3 0 -11 -5 -18 -12z m-572 -623 l0 -85 -290 0 -290 0 0 50 c0 28 1 50 3 51
14 4 512 67 540 68 l37 1 0 -85z m80 -355 l0 -210 -68 0 c-40 0 -73 -5 -80
-12 -9 -9 -12 -147 -12 -560 l0 -548 -290 0 -290 0 0 770 0 770 370 0 370 0 0
-210z m882 -481 l78 -52 0 -398 0 -399 -90 0 -90 0 0 450 c0 342 3 450 12 450
6 0 47 -23 90 -51z"/>
<path d="M580 1494 c-11 -12 -10 -18 3 -32 16 -15 18 -15 34 0 13 14 14 20 3
32 -7 9 -16 16 -20 16 -4 0 -13 -7 -20 -16z"/>
<path d="M740 1494 c-11 -12 -10 -18 3 -32 16 -15 18 -15 34 0 13 14 14 20 3
32 -7 9 -16 16 -20 16 -4 0 -13 -7 -20 -16z"/>
<path d="M900 1494 c-11 -12 -10 -18 3 -32 16 -15 18 -15 34 0 13 14 14 20 3
32 -7 9 -16 16 -20 16 -4 0 -13 -7 -20 -16z"/>
<path d="M1060 1494 c-11 -12 -10 -18 3 -32 16 -15 18 -15 34 0 13 14 14 20 3
32 -7 9 -16 16 -20 16 -4 0 -13 -7 -20 -16z"/>
<path d="M580 1334 c-11 -12 -10 -18 3 -32 16 -15 18 -15 34 0 13 14 14 20 3
32 -7 9 -16 16 -20 16 -4 0 -13 -7 -20 -16z"/>
<path d="M740 1334 c-11 -12 -10 -18 3 -32 16 -15 18 -15 34 0 13 14 14 20 3
32 -7 9 -16 16 -20 16 -4 0 -13 -7 -20 -16z"/>
<path d="M900 1334 c-11 -12 -10 -18 3 -32 16 -15 18 -15 34 0 13 14 14 20 3
32 -7 9 -16 16 -20 16 -4 0 -13 -7 -20 -16z"/>
<path d="M1060 1334 c-11 -12 -10 -18 3 -32 16 -15 18 -15 34 0 13 14 14 20 3
32 -7 9 -16 16 -20 16 -4 0 -13 -7 -20 -16z"/>
<path d="M580 1174 c-11 -12 -10 -18 3 -32 16 -15 18 -15 34 0 13 14 14 20 3
32 -7 9 -16 16 -20 16 -4 0 -13 -7 -20 -16z"/>
<path d="M740 1174 c-11 -12 -10 -18 3 -32 16 -15 18 -15 34 0 13 14 14 20 3
32 -7 9 -16 16 -20 16 -4 0 -13 -7 -20 -16z"/>
<path d="M900 1174 c-11 -12 -10 -18 3 -32 16 -15 18 -15 34 0 13 14 14 20 3
32 -7 9 -16 16 -20 16 -4 0 -13 -7 -20 -16z"/>
<path d="M580 1014 c-11 -12 -10 -18 3 -32 16 -15 18 -15 34 0 13 14 14 20 3
32 -7 9 -16 16 -20 16 -4 0 -13 -7 -20 -16z"/>
<path d="M740 1014 c-11 -12 -10 -18 3 -32 16 -15 18 -15 34 0 13 14 14 20 3
32 -7 9 -16 16 -20 16 -4 0 -13 -7 -20 -16z"/>
<path d="M900 1014 c-11 -12 -10 -18 3 -32 16 -15 18 -15 34 0 13 14 14 20 3
32 -7 9 -16 16 -20 16 -4 0 -13 -7 -20 -16z"/>
<path d="M580 854 c-11 -12 -10 -18 3 -32 16 -15 18 -15 34 0 13 14 14 20 3
32 -7 9 -16 16 -20 16 -4 0 -13 -7 -20 -16z"/>
<path d="M740 854 c-11 -12 -10 -18 3 -32 16 -15 18 -15 34 0 13 14 14 20 3
32 -7 9 -16 16 -20 16 -4 0 -13 -7 -20 -16z"/>
<path d="M900 854 c-11 -12 -10 -18 3 -32 16 -15 18 -15 34 0 13 14 14 20 3
32 -7 9 -16 16 -20 16 -4 0 -13 -7 -20 -16z"/>
<path d="M580 694 c-11 -12 -10 -18 3 -32 16 -15 18 -15 34 0 13 14 14 20 3
32 -7 9 -16 16 -20 16 -4 0 -13 -7 -20 -16z"/>
<path d="M740 694 c-11 -12 -10 -18 3 -32 16 -15 18 -15 34 0 13 14 14 20 3
32 -7 9 -16 16 -20 16 -4 0 -13 -7 -20 -16z"/>
<path d="M900 694 c-11 -12 -10 -18 3 -32 16 -15 18 -15 34 0 13 14 14 20 3
32 -7 9 -16 16 -20 16 -4 0 -13 -7 -20 -16z"/>
<path d="M580 534 c-11 -12 -10 -18 3 -32 16 -15 18 -15 34 0 13 14 14 20 3
32 -7 9 -16 16 -20 16 -4 0 -13 -7 -20 -16z"/>
<path d="M740 534 c-11 -12 -10 -18 3 -32 16 -15 18 -15 34 0 13 14 14 20 3
32 -7 9 -16 16 -20 16 -4 0 -13 -7 -20 -16z"/>
<path d="M900 534 c-11 -12 -10 -18 3 -32 16 -15 18 -15 34 0 13 14 14 20 3
32 -7 9 -16 16 -20 16 -4 0 -13 -7 -20 -16z"/>
<path d="M580 374 c-11 -12 -10 -18 3 -32 16 -15 18 -15 34 0 13 14 14 20 3
32 -7 9 -16 16 -20 16 -4 0 -13 -7 -20 -16z"/>
<path d="M740 374 c-11 -12 -10 -18 3 -32 16 -15 18 -15 34 0 13 14 14 20 3
32 -7 9 -16 16 -20 16 -4 0 -13 -7 -20 -16z"/>
<path d="M900 374 c-11 -12 -10 -18 3 -32 16 -15 18 -15 34 0 13 14 14 20 3
32 -7 9 -16 16 -20 16 -4 0 -13 -7 -20 -16z"/>
<path d="M580 214 c-11 -12 -10 -18 3 -32 16 -15 18 -15 34 0 13 14 14 20 3
32 -7 9 -16 16 -20 16 -4 0 -13 -7 -20 -16z"/>
<path d="M740 214 c-11 -12 -10 -18 3 -32 16 -15 18 -15 34 0 13 14 14 20 3
32 -7 9 -16 16 -20 16 -4 0 -13 -7 -20 -16z"/>
<path d="M900 214 c-11 -12 -10 -18 3 -32 16 -15 18 -15 34 0 13 14 14 20 3
32 -7 9 -16 16 -20 16 -4 0 -13 -7 -20 -16z"/>
</g>
</svg>
