<?xml version="1.0" standalone="no"?>
<!DOCTYPE svg PUBLIC "-//W3C//DTD SVG 20010904//EN"
 "http://www.w3.org/TR/2001/REC-SVG-20010904/DTD/svg10.dtd">
<svg version="1.0" xmlns="http://www.w3.org/2000/svg"
 width="512.000000pt" height="512.000000pt" viewBox="0 0 512.000000 512.000000"
 preserveAspectRatio="xMidYMid meet">

<g transform="translate(0.000000,512.000000) scale(0.100000,-0.100000)"
fill="#12325f" stroke="none">
<path d="M1527 4524 c-15 -8 -32 -25 -37 -38 -4 -13 -12 -96 -16 -184 l-7
-162 112 0 111 0 0 84 c0 47 3 87 8 89 9 5 2181 -98 2186 -104 2 -2 -28 -650
-65 -1439 -38 -789 -68 -1515 -69 -1612 l0 -178 68 0 c75 0 103 13 127 60 12
23 30 350 92 1662 42 899 73 1646 69 1661 -12 50 -52 64 -204 71 -1007 49
-2240 106 -2287 106 -34 -1 -72 -7 -88 -16z"/>
<path d="M1063 4015 c-17 -7 -36 -22 -42 -34 -8 -14 -11 -508 -11 -1666 0
-1507 1 -1649 16 -1675 39 -64 -54 -60 1308 -60 l1236 0 32 29 33 29 3 1667 2
1666 -29 30 -29 29 -1244 0 c-1034 -1 -1248 -3 -1275 -15z m2357 -1710 l0
-1505 -1095 0 -1095 0 0 1505 0 1505 1095 0 1095 0 0 -1505z"/>
<path d="M1543 3074 c-20 -20 -24 -31 -19 -57 3 -18 16 -40 27 -49 20 -17 72
-18 769 -18 412 0 756 3 765 6 24 10 46 60 39 89 -14 57 17 55 -802 55 l-753
0 -26 -26z"/>
<path d="M1551 2783 c-11 -10 -24 -32 -27 -50 -5 -26 -1 -37 19 -57 l26 -26
751 0 c511 0 758 3 771 11 48 25 44 105 -7 128 -18 8 -237 11 -768 11 -694 0
-745 -1 -765 -17z"/>
<path d="M1564 2488 c-22 -10 -44 -47 -44 -72 0 -7 9 -25 21 -40 l20 -26 759
0 c707 0 759 1 778 18 12 9 24 29 28 44 5 22 0 33 -24 58 l-30 30 -744 -1
c-490 0 -750 -4 -764 -11z"/>
<path d="M1540 1910 c-11 -11 -20 -33 -20 -50 0 -17 9 -39 20 -50 19 -19 33
-20 425 -20 403 0 404 0 425 22 11 12 20 34 20 48 0 14 -9 36 -20 48 -21 22
-22 22 -425 22 -392 0 -406 -1 -425 -20z"/>
<path d="M2750 1909 c-165 -74 -210 -281 -93 -419 122 -142 357 -112 439 57
66 133 13 292 -118 357 -67 33 -161 35 -228 5z"/>
<path d="M1562 1680 c-22 -9 -42 -46 -42 -76 0 -8 11 -26 25 -39 l24 -25 290
0 290 0 20 26 c26 33 27 65 2 95 l-19 24 -284 2 c-157 1 -293 -2 -306 -7z"/>
<path d="M2293 1680 c-75 -31 -45 -140 39 -140 64 0 100 72 61 119 -21 24 -68
35 -100 21z"/>
<path d="M2680 1210 c0 -112 4 -170 10 -170 6 0 46 21 90 46 l79 45 79 -45
c43 -25 82 -46 85 -46 4 0 7 77 7 171 0 159 -1 171 -17 164 -98 -42 -192 -47
-275 -15 -29 11 -54 20 -55 20 -2 0 -3 -76 -3 -170z"/>
</g>
</svg>
