<?xml version="1.0" standalone="no"?>
<!DOCTYPE svg PUBLIC "-//W3C//DTD SVG 20010904//EN"
 "http://www.w3.org/TR/2001/REC-SVG-20010904/DTD/svg10.dtd">
<svg version="1.0" xmlns="http://www.w3.org/2000/svg"
 width="356.000000pt" height="356.000000pt" viewBox="0 0 356.000000 356.000000"
 preserveAspectRatio="xMidYMid meet">

<g transform="translate(0.000000,356.000000) scale(0.100000,-0.100000)"
fill="#008d97" stroke="none">
<path d="M5 3438 c32 -433 132 -801 321 -1183 169 -343 363 -613 725 -1010 96
-105 191 -211 211 -235 l38 -45 0 65 c0 111 -20 340 -40 460 -51 309 -112 419
-395 720 -65 69 -135 148 -156 175 -120 160 -219 434 -265 733 l-17 114 -146
97 c-80 54 -177 121 -215 150 l-68 52 7 -93z"/>
<path d="M3520 3499 c-19 -17 -114 -84 -211 -149 l-176 -119 -17 -113 c-46
-299 -145 -573 -265 -733 -21 -27 -91 -106 -156 -175 -283 -301 -344 -411
-395 -720 -20 -120 -40 -349 -40 -460 l0 -65 38 45 c20 24 115 130 211 235
184 202 341 392 443 537 301 425 486 864 567 1348 19 113 47 388 40 395 -2 1
-20 -10 -39 -26z"/>
<path d="M550 3160 c0 -37 48 -233 82 -335 89 -266 219 -483 409 -680 123
-127 175 -198 210 -287 71 -177 92 -324 109 -771 13 -332 30 -408 139 -626 53
-104 186 -309 246 -376 l35 -40 35 40 c60 67 193 272 246 376 109 218 126 294
139 626 17 447 38 594 109 771 35 89 87 160 210 287 190 197 320 413 409 680
37 109 89 332 81 339 -2 2 -134 -87 -294 -197 -159 -110 -435 -298 -612 -419
l-323 -219 -217 147 c-229 155 -803 549 -935 641 -43 30 -78 49 -78 43z m1993
-652 c-11 -13 -131 -154 -266 -315 l-246 -291 -76 -439 c-41 -241 -77 -445
-79 -453 -2 -8 -3 223 -2 514 l1 529 340 239 c187 131 342 238 344 238 3 0 -5
-10 -16 -22z m-1120 -241 l317 -237 0 -157 c0 -154 0 -157 -19 -138 -14 15
-350 426 -630 770 -12 15 -13 17 -1 9 8 -6 158 -118 333 -247z"/>
</g>
</svg>
