<?xml version="1.0" standalone="no"?>
<!DOCTYPE svg PUBLIC "-//W3C//DTD SVG 20010904//EN"
 "http://www.w3.org/TR/2001/REC-SVG-20010904/DTD/svg10.dtd">
<svg version="1.0" xmlns="http://www.w3.org/2000/svg"
 width="225.000000pt" height="225.000000pt" viewBox="0 0 225.000000 225.000000"
 preserveAspectRatio="xMidYMid meet">

<g transform="translate(0.000000,225.000000) scale(0.100000,-0.100000)"
fill="#003ea8" stroke="none">
<path d="M1317 2228 c-11 -44 -31 -277 -24 -284 3 -4 13 -4 20 -1 10 4 17 33
22 102 4 54 10 122 14 151 7 47 6 54 -10 54 -9 0 -19 -10 -22 -22z"/>
<path d="M1012 2018 c2 -75 6 -93 18 -93 12 0 16 18 18 93 3 87 2 92 -18 92
-20 0 -21 -5 -18 -92z"/>
<path d="M724 2045 c-3 -8 11 -64 32 -125 28 -83 42 -110 53 -108 21 4 21 7
-19 130 -33 103 -54 135 -66 103z"/>
<path d="M354 2026 c-3 -9 45 -77 118 -168 113 -141 155 -178 152 -137 -1 18
-242 319 -256 319 -5 0 -11 -6 -14 -14z"/>
<path d="M1589 1963 c-11 -27 -23 -61 -26 -77 -5 -23 -3 -27 11 -25 18 4 79
133 68 143 -16 16 -35 1 -53 -41z"/>
<path d="M1957 1747 c-126 -75 -151 -97 -128 -111 12 -8 281 154 281 169 0 8
-4 16 -8 19 -5 3 -70 -32 -145 -77z"/>
<path d="M1187 1672 c-14 -15 -17 -41 -17 -135 l0 -117 130 0 130 0 0 119 c0
150 -1 151 -136 151 -75 0 -94 -3 -107 -18z"/>
<path d="M852 1598 c-9 -9 -12 -86 -12 -285 l0 -273 123 0 c145 0 159 6 121
46 -73 79 -71 209 5 278 19 17 21 30 21 113 0 135 2 133 -133 133 -75 0 -117
-4 -125 -12z"/>
<path d="M10 1551 c0 -15 28 -29 143 -70 78 -28 148 -51 155 -51 6 0 12 8 12
18 0 13 -34 29 -148 70 -81 29 -150 52 -154 52 -5 0 -8 -8 -8 -19z"/>
<path d="M564 1486 c-17 -13 -19 -30 -22 -215 l-3 -201 115 0 116 0 0 203 c0
145 -3 206 -12 215 -18 18 -169 16 -194 -2z"/>
<path d="M1152 1340 c-60 -37 -79 -126 -42 -188 30 -50 71 -62 205 -62 l115 0
0 -30 0 -30 -113 0 c-108 0 -115 -1 -160 -30 -60 -38 -94 -104 -110 -211 -7
-52 -14 -74 -18 -62 -13 31 -9 156 5 203 l14 45 -95 -3 c-73 -3 -100 0 -118
12 -19 13 -54 16 -161 16 l-136 0 4 -127 c3 -108 7 -135 26 -170 26 -50 72
-87 130 -104 l42 -12 0 -289 0 -288 295 0 295 0 0 288 0 288 46 12 c102 28
201 114 251 219 16 32 34 64 41 72 10 10 12 62 10 228 -3 199 -4 216 -22 229
-16 11 -66 14 -245 14 -209 0 -228 -2 -259 -20z"/>
<path d="M2063 1353 c-7 -2 -13 -11 -13 -19 0 -11 20 -14 100 -14 93 0 100 1
100 20 0 19 -6 20 -87 19 -49 0 -94 -3 -100 -6z"/>
<path d="M37 1203 c-22 -21 -3 -32 71 -37 42 -4 101 -9 130 -11 46 -5 52 -3
52 14 0 17 -11 20 -107 26 -60 4 -115 8 -124 11 -8 2 -18 1 -22 -3z"/>
<path d="M1827 965 c-4 -8 -3 -16 1 -19 77 -46 364 -186 372 -181 29 18 -2 41
-170 125 -99 49 -184 90 -189 90 -5 0 -11 -7 -14 -15z"/>
<path d="M235 830 c-91 -49 -109 -65 -81 -76 20 -7 208 94 203 109 -7 22 -31
15 -122 -33z"/>
<path d="M369 541 c-42 -38 -51 -52 -42 -61 9 -10 24 -3 67 31 52 41 73 79 43
79 -7 0 -38 -22 -68 -49z"/>
</g>
</svg>
