<?xml version="1.0" standalone="no"?>
<!DOCTYPE svg PUBLIC "-//W3C//DTD SVG 20010904//EN"
 "http://www.w3.org/TR/2001/REC-SVG-20010904/DTD/svg10.dtd">
<svg version="1.0" xmlns="http://www.w3.org/2000/svg"
 width="192.000000pt" height="192.000000pt" viewBox="0 0 192.000000 192.000000"
 preserveAspectRatio="xMidYMid meet">

<g transform="translate(0.000000,192.000000) scale(0.100000,-0.100000)"
fill="#12325f" stroke="none">
<path d="M915 1913 c-179 -25 -342 -105 -472 -232 -131 -127 -157 -245 -118
-531 6 -42 1 -56 -49 -155 -63 -123 -70 -165 -32 -190 62 -41 93 -118 121
-305 22 -149 16 -145 216 -145 l161 0 44 -48 c45 -50 94 -142 123 -230 9 -30
23 -53 32 -55 9 -2 113 91 256 227 l240 229 -5 74 c-6 94 11 136 124 311 117
181 128 213 129 367 0 106 -4 136 -24 195 -53 158 -139 269 -280 360 -148 96
-332 146 -466 128z m-1 -273 c20 -7 26 -17 26 -39 0 -34 15 -42 48 -27 20 8
27 6 43 -14 29 -37 34 -68 15 -89 -23 -25 -20 -51 4 -51 27 0 34 -22 24 -73
-8 -37 -13 -42 -37 -42 -38 -1 -52 -17 -37 -45 14 -26 5 -39 -44 -65 -33 -18
-36 -18 -54 -2 -22 20 -52 22 -52 5 -1 -35 -16 -41 -70 -28 -49 12 -52 14 -48
40 4 29 -25 60 -37 40 -13 -21 -44 -9 -64 24 -25 39 -27 64 -6 72 23 9 18 40
-10 52 -25 12 -28 23 -16 77 5 25 12 31 41 35 34 5 35 6 32 45 -2 38 0 41 40
64 l42 24 17 -22 c23 -28 45 -27 53 4 5 20 13 25 36 25 16 0 40 -4 54 -10z
m368 -130 c15 -24 31 -26 47 -6 11 13 17 12 47 -6 35 -21 42 -32 24 -43 -17
-11 8 -34 30 -28 15 4 21 -3 29 -33 11 -41 8 -54 -15 -54 -19 0 -18 -30 2 -45
16 -11 16 -14 -2 -44 -15 -26 -24 -31 -49 -29 -26 3 -30 0 -27 -20 2 -16 -4
-25 -23 -32 -38 -14 -65 -12 -65 5 0 8 -9 15 -20 15 -11 0 -20 -4 -20 -10 0
-15 -33 -12 -58 6 -16 11 -22 24 -20 42 3 23 -1 27 -22 27 -21 0 -27 7 -35 39
-6 26 -6 41 0 43 35 12 39 22 20 43 -18 20 -18 24 -4 48 11 20 23 27 44 27 25
0 31 4 33 27 2 18 12 30 30 37 38 14 40 13 54 -9z m-222 -315 c0 -18 27 -20
32 -3 4 10 10 10 32 0 20 -9 26 -18 24 -35 -2 -16 3 -23 19 -25 32 -5 42 -48
17 -68 -14 -11 -15 -17 -6 -20 32 -14 -2 -72 -39 -66 -13 2 -17 -1 -13 -12 3
-8 -3 -19 -15 -25 -28 -15 -51 -14 -51 4 0 18 -27 20 -32 3 -4 -10 -10 -10
-32 0 -20 9 -26 18 -24 35 2 16 -1 21 -15 19 -11 -2 -21 6 -27 23 -14 36 -13
45 5 45 18 0 20 27 3 32 -10 4 -10 10 0 32 9 20 18 26 34 24 13 -2 23 3 24 10
1 6 2 16 3 21 1 9 21 17 49 20 6 0 12 -6 12 -14z"/>
<path d="M790 1450 c-27 -27 -25 -56 5 -85 27 -28 37 -30 68 -14 29 16 37 28
37 60 0 54 -70 79 -110 39z"/>
<path d="M1252 1378 c-20 -20 -15 -66 9 -78 26 -14 69 11 69 40 0 39 -51 65
-78 38z"/>
<path d="M1030 1081 c-7 -15 -6 -23 6 -35 19 -20 29 -20 48 0 19 19 20 26 4
42 -18 18 -46 14 -58 -7z"/>
</g>
</svg>
